<?xml version="1.0" encoding="UTF-8" standalone="no"?>
<!-- Created with Inkscape (http://www.inkscape.org/) -->

<svg
   width="44.979164mm"
   height="51.60088mm"
   viewBox="0 0 44.979164 51.60088"
   version="1.1"
   id="svg1"
   xml:space="preserve"
   xmlns="http://www.w3.org/2000/svg"
   xmlns:svg="http://www.w3.org/2000/svg"><defs
     id="defs1" /><g
     id="layer1"
     transform="translate(-103.9324,-121.80809)"><path
       style="fill:#0d7582;stroke:none"
       d="m 124.5699,125.25482 -2.11667,-0.79375 c -1.39945,3.31653 0.52917,6.87836 0.52917,10.31875 -1.73165,-0.73318 -2.86503,-2.28325 -4.49792,-3.18296 -3.22555,-1.77725 -3.01605,1.64693 -2.2659,3.71213 0.69459,1.91225 1.65449,4.02346 3.10865,5.48051 1.63648,1.63972 3.93202,2.80404 4.7135,5.10282 -2.18101,0.0893 -3.39145,-1.74325 -5.02708,-2.89898 -2.13501,-1.50859 -4.56774,-2.3246 -7.14375,-2.65727 -0.67728,1.22841 -2.39117,1.36519 -3.70417,1.5875 0.23299,2.55248 0.95584,3.95759 3.70417,4.23334 -0.37301,0.48751 -1.16949,1.14895 -0.96708,1.83779 0.30432,1.03565 1.95296,1.6292 2.81916,2.06542 2.6984,1.35892 5.52156,2.45199 8.20209,3.83809 0.83954,0.43413 3.41661,1.53813 3.05291,2.80262 -0.44144,1.53476 -2.72979,-0.36818 -3.3175,-0.79456 -3.78407,-2.74535 -8.17296,-4.9472 -12.96458,-4.98687 v 1.05834 c -2.03231,-0.16017 -3.0042,-0.0623 -4.7625,1.05833 l 1.5875,2.64583 -1.05833,0.52917 c 1.24245,2.27078 4.0421,2.47558 6.35,2.91042 l -3.43959,3.175 c 3.63879,2.38034 5.47518,3.46489 10.05417,3.15132 2.02306,-0.13854 6.51919,-1.67688 8.12838,-0.15679 1.91453,1.80852 0.86745,5.80897 0.86745,8.11796 h 1.05833 c -0.002,-2.51389 -1.29268,-7.18684 1.59241,-8.64713 1.78213,-0.90204 4.00694,0.005 5.81593,0.32236 1.81598,0.31866 3.77049,0.14579 5.55625,-0.25438 1.41914,-0.31801 3.16155,-0.65154 3.43958,-2.26876 0.35996,-0.0317 0.71879,-0.0383 1.06895,-0.14107 3.90644,-1.14694 -1.50891,-3.20719 -2.12728,-4.35685 2.41718,-0.55413 5.09871,-1.19676 6.08541,-3.70416 l -1.32291,-0.52917 v -0.52917 c 1.57464,-0.91924 1.79718,-3.0509 -0.26581,-3.56799 -1.16162,-0.29117 -2.19118,0.40798 -3.17378,0.92216 l -0.26458,-0.79375 c -1.94263,0.83709 -3.76468,2.06682 -5.55625,3.18827 -1.22551,0.76713 -2.45346,1.52982 -3.70417,2.2557 -1.40068,0.81292 -3.30269,2.31382 -4.97604,2.39799 -2.16027,0.10865 0.77223,-2.71689 1.27188,-3.0519 3.11756,-2.09029 6.76501,-3.02726 10.05416,-4.76066 1.3597,-0.71657 2.98148,-1.38249 3.43959,-2.93982 l -1.85209,-0.79375 v -0.52916 c 3.05826,-1.28002 2.9756,-2.36228 3.175,-5.29167 -2.47545,-0.0514 -4.25303,-0.54945 -6.61458,0.59776 -2.09069,1.01564 -4.52704,3.74045 -6.87917,3.63557 1.96361,-3.39702 5.88461,-5.04437 7.14375,-8.99583 v -5.02708 l -3.70028,0.94135 -5.29555,4.6149 c -0.34402,-3.09829 1.67613,-5.52101 2.03317,-8.46667 0.33972,-2.80277 -1.38031,-2.88576 -3.35609,-1.85208 -0.001,-1.70763 -1.87008,-5.8261 -3.96241,-3.02678 -0.46032,0.61585 -0.44196,1.75813 -0.5355,2.49761 z"
       id="path11" /></g></svg>
